<svg width="24" height="24" viewBox="0 0 24 24" fill="none" xmlns="http://www.w3.org/2000/svg">
  <path d="M12 22L16.2 9H7.8L12 22Z" fill="#E24329"/>
  <path d="M12 22L7.8 9H1.9L12 22Z" fill="#FC6D26"/>
  <path d="M1.9 9L0.62 12.95C0.5 13.33 0.63 13.74 0.95 13.98L12 22L1.9 9Z" fill="#FCA326"/>
  <path d="M1.9 9H7.8L5.27 1.2C5.14 0.8 4.58 0.8 4.45 1.2L1.9 9Z" fill="#E24329"/>
  <path d="M12 22L16.2 9H22.1L12 22Z" fill="#FC6D26"/>
  <path d="M22.1 9L23.38 12.95C23.5 13.33 23.37 13.74 23.05 13.98L12 22L22.1 9Z" fill="#FCA326"/>
  <path d="M22.1 9H16.2L18.73 1.2C18.86 0.8 19.42 0.8 19.55 1.2L22.1 9Z" fill="#E24329"/>
</svg>
